<svg width="512" height="512" viewBox="0 0 512 512" fill="none" xmlns="http://www.w3.org/2000/svg">
<path d="M505.852 232.474L400.655 49.5193C396.699 42.5037 390.979 36.6432 384.061 32.5179C377.144 28.3927 369.269 26.1459 361.216 26H150.782C142.728 26.1419 134.851 28.3871 127.933 32.5127C121.015 36.6383 115.296 42.5011 111.343 49.5193L6.10586 231.994C2.10529 238.956 0 246.844 0 254.873C0 262.903 2.10529 270.791 6.10586 277.753L111.303 461.747C115.217 468.865 120.906 474.849 127.816 479.118C134.727 483.386 142.625 485.794 150.742 486.107H361.176C369.291 485.828 377.196 483.448 384.116 479.199C391.036 474.951 396.734 468.979 400.655 461.867L505.852 278.913C509.881 271.838 512 263.836 512 255.693C512 247.551 509.881 239.549 505.852 232.474V232.474Z" fill="black"/>
<path d="M259.794 204.054L313.688 290.283H205.901L259.794 204.054Z" fill="#EF9E3F"/>
<path d="M236.493 242.001L161.995 359.603L113.175 177.404L236.493 242.001Z" fill="#C63E3E"/>
<path d="M283.098 242.002L406.416 177.405L357.596 359.604L283.098 242.002Z" fill="#486DAA"/>
</svg>
