<svg viewBox="0 0 262 100" fill="none" xmlns="http://www.w3.org/2000/svg">
<g clip-path="url(#clip0_15_118)">
<g clip-path="url(#clip1_15_118)">
<path d="M95.8619 46.1359L76.3423 12.1883C75.6083 10.8865 74.5469 9.79908 73.2634 9.03363C71.9798 8.26819 70.5186 7.85129 69.0244 7.82422H29.9779C28.4835 7.85055 27.022 8.26714 25.7383 9.03266C24.4546 9.79818 23.3934 10.886 22.6599 12.1883L3.13296 46.0469C2.39064 47.3386 2 48.8024 2 50.2922C2 51.782 2.39064 53.2458 3.13296 54.5375L22.6525 88.6781C23.3787 89.9988 24.4343 91.1092 25.7166 91.9012C26.9989 92.6932 28.4644 93.14 29.9705 93.198H69.0169C70.5228 93.1464 71.9894 92.7047 73.2735 91.9164C74.5575 91.128 75.6149 90.0199 76.3423 88.7004L95.8619 54.7527C96.6095 53.4399 97.0027 51.9551 97.0027 50.4443C97.0027 48.9335 96.6095 47.4488 95.8619 46.1359Z" fill="white"/>
<path d="M50.2056 40.8625L60.2056 56.8625H40.2056L50.2056 40.8625Z" fill="#EF9E3F"/>
<path d="M45.8819 47.9037L32.0587 69.725L23 35.9176L45.8819 47.9037Z" fill="#C63E3E"/>
<path d="M54.5294 47.9038L77.4113 35.9177L68.3527 69.7251L54.5294 47.9038Z" fill="#486DAA"/>
</g>
<path d="M134.977 47.7188C134.336 46.8125 133.695 45.8672 133.055 44.8828C132.414 43.8828 131.773 42.8828 131.133 41.8828C130.492 40.8672 129.852 39.8672 129.211 38.8828C128.57 37.8984 127.93 36.9531 127.289 36.0469H132.656L137.297 43.5469L137.977 45L138.633 43.5469C139.445 42.3281 140.227 41.0781 140.977 39.7969C141.727 38.5156 142.5 37.2656 143.297 36.0469H148.617L140.625 48.1172L148.477 60H143.109L138.211 52.1719L137.578 50.7891L136.945 52.1719L132.211 60H126.938L134.977 47.7188Z" fill="white"/>
<path fill-rule="evenodd" clip-rule="evenodd" d="M230.958 63.8574V21.0468C230.958 18.5933 229.605 17.2393 227.151 17.2393H218.775C216.322 17.2393 214.968 18.5933 214.968 21.0468C214.968 21.0468 214.968 30.3918 214.968 41.3777C214.968 41.9503 220.484 44.6089 220.628 45.1711C224.832 61.5938 221.542 74.7378 217.557 75.3513C224.072 75.6736 224.789 78.8059 219.936 76.6656C220.679 67.903 223.575 67.9201 231.903 76.3433C231.974 76.4159 233.61 79.8479 233.712 79.8479C243.075 79.8479 253.379 79.8479 253.379 79.8479C255.833 79.8479 257.186 78.4946 257.186 76.0411V67.6649C257.186 65.2115 255.833 63.8574 253.379 63.8574H230.958Z" fill="#02A9FF"/>
<path fill-rule="evenodd" clip-rule="evenodd" d="M196.188 17.2393L174.19 79.8479H191.281L195.004 69.0183H213.617L217.255 79.8479H234.261L212.348 17.2393H196.188ZM198.895 55.1431L204.225 37.7985L210.063 55.1431H198.895Z" fill="#FEFEFE"/>
</g>
<defs>
<clipPath id="clip0_15_118">
<rect width="262" height="100" fill="white"/>
</clipPath>
<clipPath id="clip1_15_118">
<rect width="95" height="95" fill="white" transform="translate(2 3)"/>
</clipPath>
</defs>
</svg>
